<?xml version="1.0" encoding="UTF-8" standalone="no"?>
<!-- Created with Inkscape (http://www.inkscape.org/) -->

<svg
   width="156"
   height="96.000008"
   viewBox="0 0 146.24999 90.000007"
   id="svg3488"
   version="1.1"
   inkscape:version="1.4.2 (ebf0e940d0, 2025-05-08)"
   sodipodi:docname="other-tabs.svg"
   xmlns:inkscape="http://www.inkscape.org/namespaces/inkscape"
   xmlns:sodipodi="http://sodipodi.sourceforge.net/DTD/sodipodi-0.dtd"
   xmlns:xlink="http://www.w3.org/1999/xlink"
   xmlns="http://www.w3.org/2000/svg"
   xmlns:svg="http://www.w3.org/2000/svg"
   xmlns:rdf="http://www.w3.org/1999/02/22-rdf-syntax-ns#"
   xmlns:cc="http://creativecommons.org/ns#"
   xmlns:dc="http://purl.org/dc/elements/1.1/">
  <defs
     id="defs3490">
    <linearGradient
       inkscape:collect="always"
       xlink:href="#linearGradient4202"
       id="linearGradient25"
       gradientUnits="userSpaceOnUse"
       gradientTransform="matrix(0.9473683,0,0,0.9473683,537.05357,227.44115)"
       x1="30"
       y1="902.36218"
       x2="47.5"
       y2="832.67468" />
    <linearGradient
       id="linearGradient4202">
      <stop
         id="stop4204"
         offset="0"
         style="stop-color:#75c7f0;stop-opacity:1;" />
      <stop
         style="stop-color:#e5e5e5;stop-opacity:1;"
         offset="1"
         id="stop4206" />
    </linearGradient>
    <linearGradient
       inkscape:collect="always"
       xlink:href="#linearGradient4202"
       id="linearGradient2"
       gradientUnits="userSpaceOnUse"
       gradientTransform="matrix(-0.9473683,0,0,0.9473683,643.92856,227.44115)"
       x1="50.138882"
       y1="914.48029"
       x2="50.138882"
       y2="835.3136" />
  </defs>
  <sodipodi:namedview
     id="base"
     pagecolor="#ffffff"
     bordercolor="#666666"
     borderopacity="1.0"
     inkscape:pageopacity="0.0"
     inkscape:pageshadow="2"
     inkscape:zoom="4.4328203"
     inkscape:cx="133.54929"
     inkscape:cy="43.990053"
     inkscape:document-units="px"
     inkscape:current-layer="layer1"
     showgrid="false"
     fit-margin-top="0"
     fit-margin-left="0"
     fit-margin-right="0"
     fit-margin-bottom="0"
     inkscape:window-width="1503"
     inkscape:window-height="930"
     inkscape:window-x="0"
     inkscape:window-y="0"
     inkscape:window-maximized="1"
     inkscape:object-nodes="true"
     inkscape:snap-page="true"
     inkscape:showpageshadow="2"
     inkscape:pagecheckerboard="0"
     inkscape:deskcolor="#d1d1d1">
    <inkscape:grid
       type="xygrid"
       id="grid4272"
       originx="1.0658141e-13"
       originy="0"
       spacingy="1"
       spacingx="1"
       units="px"
       visible="false" />
  </sodipodi:namedview>
  <metadata
     id="metadata3493">
    <rdf:RDF>
      <cc:Work
         rdf:about="">
        <dc:format>image/svg+xml</dc:format>
        <dc:type
           rdf:resource="http://purl.org/dc/dcmitype/StillImage" />
      </cc:Work>
    </rdf:RDF>
  </metadata>
  <g
     inkscape:label="Layer 1"
     inkscape:groupmode="layer"
     id="layer1"
     transform="translate(-531.42857,-1038.7908)">
    <path
       id="path16"
       style="display:inline;fill:url(#linearGradient25);fill-opacity:1;stroke:none;stroke-width:0.947366"
       d="m 580.6432,1038.7908 c -2.47771,0 -4.63663,1.6887 -5.23774,4.0924 l -21.4769,85.9076 h 36.5625 87.1875 l -15.8519,-63.4076 c -0.60148,-2.4052 -2.7626,-4.0924 -5.24184,-4.0924 h -14.06251 c -2.47924,0 -4.64037,1.6872 -5.24185,4.0924 l -0.38314,1.5326 -3.19566,-12.7827 c -0.60152,-2.4051 -2.76264,-4.0923 -5.24185,-4.0923 h -14.06249 c -2.47921,0 -4.64034,1.6872 -5.24186,4.0923 l -0.38315,1.5327 -3.19565,-12.7826 c -0.60111,-2.4037 -2.76003,-4.0905 -5.23773,-4.0924 z"
       sodipodi:nodetypes="ccccccsscccccccccc" />
    <path
       id="path1"
       style="display:inline;fill:url(#linearGradient2);fill-opacity:1;stroke:none;stroke-width:0.947366"
       d="m 600.33893,1038.7908 c 2.47771,0 4.63663,1.6887 5.23774,4.0924 l 21.4769,85.9076 h -36.5625 -59.0625 l 18.6644,-74.6577 c 0.60152,-2.4051 2.76264,-4.0923 5.24185,-4.0923 h 11.24999 c 2.47921,0 4.64034,1.6872 5.24186,4.0923 l 0.38315,1.5327 3.19565,-12.7826 c 0.60111,-2.4037 2.76003,-4.0905 5.23773,-4.0924 z"
       sodipodi:nodetypes="ccccccccccccc" />
    <path
       id="path2"
       style="display:inline;fill:#fbfdfe;stroke-width:1.40625;fill-opacity:1"
       d="m 572.20982,1055.6658 -18.28126,73.125 h -16.875 l 17.76902,-71.0788 c 0.3008,-1.2028 1.38173,-2.0465 2.62161,-2.0462 z m -40.78125,73.125 c 0,-90 0,-90 0,0 z"
       sodipodi:nodetypes="cccccccc" />
    <path
       id="rect7"
       style="display:inline;fill:#fbfdfe;stroke-width:1.40625;fill-opacity:1"
       d="m 608.77231,1055.6658 18.28126,73.125 h 19.6875 l -17.76902,-71.0788 c -0.3008,-1.2028 -1.38173,-2.0465 -2.62161,-2.0462 z m 28.12501,11.25 15.46874,61.875 h 19.6875 l -14.95651,-59.8287 c -0.30076,-1.2029 -1.38171,-2.0466 -2.62162,-2.0463 z"
       sodipodi:nodetypes="cccccccccccc" />
  </g>
</svg>
