<?xml version="1.0" encoding="UTF-8" standalone="no"?>
<!-- Created with Inkscape (http://www.inkscape.org/) -->

<svg
   width="156"
   height="96.000008"
   viewBox="0 0 146.24999 90.000007"
   id="svg3488"
   version="1.1"
   inkscape:version="1.4.2 (ebf0e940d0, 2025-05-08)"
   sodipodi:docname="this-tab.svg"
   xmlns:inkscape="http://www.inkscape.org/namespaces/inkscape"
   xmlns:sodipodi="http://sodipodi.sourceforge.net/DTD/sodipodi-0.dtd"
   xmlns:xlink="http://www.w3.org/1999/xlink"
   xmlns="http://www.w3.org/2000/svg"
   xmlns:svg="http://www.w3.org/2000/svg"
   xmlns:rdf="http://www.w3.org/1999/02/22-rdf-syntax-ns#"
   xmlns:cc="http://creativecommons.org/ns#"
   xmlns:dc="http://purl.org/dc/elements/1.1/">
  <defs
     id="defs3490">
    <linearGradient
       inkscape:collect="always"
       xlink:href="#linearGradient4202"
       id="linearGradient25"
       gradientUnits="userSpaceOnUse"
       gradientTransform="matrix(0.9473683,0,0,0.9473683,514.55358,227.44115)"
       x1="30"
       y1="902.36218"
       x2="47.5"
       y2="832.67468" />
    <linearGradient
       id="linearGradient4202">
      <stop
         id="stop4204"
         offset="0"
         style="stop-color:#75c7f0;stop-opacity:1;" />
      <stop
         style="stop-color:#e5e5e5;stop-opacity:1;"
         offset="1"
         id="stop4206" />
    </linearGradient>
  </defs>
  <sodipodi:namedview
     id="base"
     pagecolor="#ffffff"
     bordercolor="#666666"
     borderopacity="1.0"
     inkscape:pageopacity="0.0"
     inkscape:pageshadow="2"
     inkscape:zoom="3.9637979"
     inkscape:cx="154.64966"
     inkscape:cy="52.474926"
     inkscape:document-units="px"
     inkscape:current-layer="layer1"
     showgrid="false"
     fit-margin-top="0"
     fit-margin-left="0"
     fit-margin-right="0"
     fit-margin-bottom="0"
     inkscape:window-width="1503"
     inkscape:window-height="930"
     inkscape:window-x="0"
     inkscape:window-y="0"
     inkscape:window-maximized="1"
     inkscape:object-nodes="true"
     inkscape:snap-page="true"
     inkscape:showpageshadow="2"
     inkscape:pagecheckerboard="0"
     inkscape:deskcolor="#d1d1d1">
    <inkscape:grid
       type="xygrid"
       id="grid4272"
       originx="1.0658141e-13"
       originy="0"
       spacingy="1"
       spacingx="1"
       units="px"
       visible="false" />
  </sodipodi:namedview>
  <metadata
     id="metadata3493">
    <rdf:RDF>
      <cc:Work
         rdf:about="">
        <dc:format>image/svg+xml</dc:format>
        <dc:type
           rdf:resource="http://purl.org/dc/dcmitype/StillImage" />
      </cc:Work>
    </rdf:RDF>
  </metadata>
  <g
     inkscape:label="Layer 1"
     inkscape:groupmode="layer"
     id="layer1"
     transform="translate(-531.42857,-1038.7908)">
    <path
       id="path16"
       style="display:inline;fill:url(#linearGradient25);fill-opacity:1;stroke:none;stroke-width:0.947366"
       d="m 558.14321,1038.7908 a 5.4032749,5.4032749 0 0 0 -5.23774,4.0924 l -21.4769,85.9076 h 36.5625 109.6875 l -13.0394,-52.1576 a 5.4032699,5.4032699 0 0 0 -5.24185,-4.0924 h -11.25 a 5.4032783,5.4032783 0 0 0 -5.24185,4.0924 l -0.38315,1.5326 -3.19565,-12.7826 a 5.4032709,5.4032709 0 0 0 -5.24184,-4.0924 h -14.06251 a 5.4032779,5.4032779 0 0 0 -5.24185,4.0924 l -0.38314,1.5326 -3.19566,-12.7827 a 5.4032711,5.4032711 0 0 0 -5.24185,-4.0923 h -14.06249 a 5.4032782,5.4032782 0 0 0 -5.24186,4.0923 l -0.38315,1.5327 -3.19565,-12.7826 a 5.4032749,5.4032749 0 0 0 -5.23773,-4.0924 z" />
    <path
       id="rect7"
       style="display:inline;fill:#fbfdfe;stroke-width:1.40625;fill-opacity:1"
       d="m 560.25669,1044.4158 c -1.23988,-3e-4 -2.32127,0.8443 -2.62207,2.0471 l -5.62316,22.4945 c -4.8e-4,0 -0.001,0 -0.002,0.01 l -12.14355,48.5779 -2.8125,11.25 h 61.875 l -17.76856,-71.0797 c -6e-4,-0 -0.001,-0.01 -0.002,-0.01 l -2.81067,-11.239 c -0.3008,-1.2028 -1.38219,-2.0474 -2.62207,-2.0471 z"
       sodipodi:nodetypes="cccccccccccc" />
  </g>
</svg>
