<?xml version="1.0" encoding="UTF-8" standalone="no"?>
<!-- Created with Inkscape (http://www.inkscape.org/) -->

<svg
   width="156"
   height="96"
   viewBox="0 0 146.25 89.999999"
   id="svg3488"
   version="1.1"
   inkscape:version="1.4.2 (ebf0e940d0, 2025-05-08)"
   sodipodi:docname="tabalanche-topper.svg"
   xmlns:inkscape="http://www.inkscape.org/namespaces/inkscape"
   xmlns:sodipodi="http://sodipodi.sourceforge.net/DTD/sodipodi-0.dtd"
   xmlns:xlink="http://www.w3.org/1999/xlink"
   xmlns="http://www.w3.org/2000/svg"
   xmlns:svg="http://www.w3.org/2000/svg"
   xmlns:rdf="http://www.w3.org/1999/02/22-rdf-syntax-ns#"
   xmlns:cc="http://creativecommons.org/ns#"
   xmlns:dc="http://purl.org/dc/elements/1.1/">
  <defs
     id="defs3490">
    <linearGradient
       inkscape:collect="always"
       xlink:href="#linearGradient4202-35"
       id="linearGradient25"
       gradientUnits="userSpaceOnUse"
       gradientTransform="matrix(0.94736842,0,0,0.94736842,514.55357,227.44111)"
       x1="30"
       y1="902.36218"
       x2="47.5"
       y2="832.67468" />
    <linearGradient
       id="linearGradient4202-35">
      <stop
         id="stop4204-62"
         offset="0"
         style="stop-color:#75c7f0;stop-opacity:1;" />
      <stop
         style="stop-color:#e5e5e5;stop-opacity:1"
         offset="1"
         id="stop4206-9" />
    </linearGradient>
  </defs>
  <sodipodi:namedview
     id="base"
     pagecolor="#ffffff"
     bordercolor="#666666"
     borderopacity="1.0"
     inkscape:pageopacity="0.0"
     inkscape:pageshadow="2"
     inkscape:zoom="2.3497553"
     inkscape:cx="103.8406"
     inkscape:cy="80.859484"
     inkscape:document-units="px"
     inkscape:current-layer="layer1"
     showgrid="false"
     fit-margin-top="0"
     fit-margin-left="0"
     fit-margin-right="0"
     fit-margin-bottom="0"
     inkscape:window-width="1503"
     inkscape:window-height="930"
     inkscape:window-x="0"
     inkscape:window-y="0"
     inkscape:window-maximized="1"
     inkscape:object-nodes="true"
     inkscape:snap-page="true"
     inkscape:showpageshadow="2"
     inkscape:pagecheckerboard="0"
     inkscape:deskcolor="#d1d1d1">
    <inkscape:grid
       type="xygrid"
       id="grid4272"
       originx="1.0658141e-13"
       originy="0"
       spacingy="1"
       spacingx="1"
       units="px" />
  </sodipodi:namedview>
  <metadata
     id="metadata3493">
    <rdf:RDF>
      <cc:Work
         rdf:about="">
        <dc:format>image/svg+xml</dc:format>
        <dc:type
           rdf:resource="http://purl.org/dc/dcmitype/StillImage" />
      </cc:Work>
    </rdf:RDF>
  </metadata>
  <g
     inkscape:label="Layer 1"
     inkscape:groupmode="layer"
     id="layer1"
     transform="translate(-531.42857,-1038.7908)">
    <path
       id="path16"
       style="display:inline;fill:url(#linearGradient25);fill-opacity:1;stroke:none;stroke-width:0.94737"
       d="m 558.1432,1038.7908 a 5.4032752,5.4032752 0 0 0 -5.23773,4.0924 l -21.4769,85.9076 h 36.5625 109.6875 l -13.03939,-52.1576 a 5.4032701,5.4032701 0 0 0 -5.24186,-4.0924 h -11.25 a 5.4032786,5.4032786 0 0 0 -5.24185,4.0924 l -0.38315,1.5326 -3.19564,-12.7826 a 5.4032711,5.4032711 0 0 0 -5.24186,-4.0924 h -14.0625 a 5.4032782,5.4032782 0 0 0 -5.24185,4.0924 l -0.38315,1.5326 -3.19564,-12.7826 a 5.4032713,5.4032713 0 0 0 -5.24186,-4.0924 h -14.0625 a 5.4032785,5.4032785 0 0 0 -5.24185,4.0924 l -0.38315,1.5326 -3.19565,-12.7826 a 5.4032752,5.4032752 0 0 0 -5.23773,-4.0924 z" />
    <path
       id="rect7"
       style="display:inline;fill:#fbfdfe;fill-opacity:1;stroke-width:1.40625"
       d="m 586.27232,1055.6658 18.28125,73.125 h 19.6875 l -17.76901,-71.0788 a 2.7016357,2.7016357 0 0 0 -2.62161,-2.0462 z m 28.125,11.25 15.46875,61.875 h 19.6875 l -14.95651,-59.8288 a 2.7016356,2.7016356 0 0 0 -2.62161,-2.0462 z m 28.125,11.25 12.65625,50.625 h 16.875 l -12.23053,-48.9193 a 2.2513628,2.2513628 0 0 0 -2.18353,-1.7057 z" />
  </g>
</svg>
